<?xml version="1.0" encoding="iso-8859-1"?>
<!-- Uploaded to: SVG Repo, www.svgrepo.com, Generator: SVG Repo Mixer Tools -->
<!DOCTYPE svg PUBLIC "-//W3C//DTD SVG 1.1//EN" "http://www.w3.org/Graphics/SVG/1.1/DTD/svg11.dtd">
<svg fill="#000000" version="1.1" id="Capa_1" xmlns="http://www.w3.org/2000/svg" xmlns:xlink="http://www.w3.org/1999/xlink" 
	 width="800px" height="800px" viewBox="0 0 30.396 30.396"
	 xml:space="preserve">
<g>
	<g>
		<path d="M17.638,22.928c-0.73-0.032-1.543-0.076-2.439-0.076s-1.709,0.044-2.439,0.076c0.476,0.774,1.384,1.422,2.439,1.422
			C16.253,24.35,17.161,23.703,17.638,22.928z"/>
		<path d="M15.198,14.09c-2.909,0-5.267,3.477-5.267,6.386s2.358,1.911,5.267,1.911c2.908,0,5.266,0.998,5.266-1.911
			S18.106,14.09,15.198,14.09z"/>
		<path d="M25.386,0.254c-1.723-0.995-4.799,1.092-6.354,3.574c-0.734-0.201-1.918-0.363-3.834-0.363
			c-1.917,0-3.1,0.162-3.835,0.363C9.81,1.346,6.733-0.74,5.009,0.254c-1.782,1.029-1.438,4.96,0.057,7.55
			C5.398,8.379,5.7,8.731,5.992,8.937c0.001,0.037-0.007,0.072-0.004,0.11l0.523,7.85c0.105,1.569,1.022,2.948,2.31,3.744
			c-0.001-0.058-0.008-0.105-0.008-0.165c0-3.47,2.789-7.504,6.385-7.504c3.596,0,6.385,4.035,6.385,7.504
			c0,0.06-0.008,0.107-0.008,0.165c1.287-0.796,2.205-2.175,2.311-3.744l0.521-7.85c0.004-0.038-0.004-0.073-0.004-0.11
			c0.293-0.206,0.594-0.558,0.926-1.132C26.825,5.215,27.169,1.283,25.386,0.254z M11.084,12.127c-0.818,0-1.481-0.663-1.481-1.481
			c0-0.818,0.663-1.481,1.481-1.481c0.817,0,1.48,0.663,1.48,1.481C12.564,11.464,11.902,12.127,11.084,12.127z M19.312,12.127
			c-0.818,0-1.48-0.663-1.48-1.481c0-0.818,0.662-1.481,1.48-1.481s1.48,0.663,1.48,1.481C20.792,11.464,20.13,12.127,19.312,12.127
			z"/>
		<path d="M19.253,22.986c-0.311,0-0.561,0.25-0.561,0.561c0,1.927-1.568,3.494-3.494,3.494c-1.927,0-3.495-1.567-3.495-3.494
			c0-0.31-0.25-0.561-0.559-0.561c-0.309,0-0.559,0.25-0.559,0.561c0,2.195,1.545,4.03,3.604,4.493
			c-0.238,0.25-0.389,0.584-0.389,0.958c0,0.772,0.626,1.398,1.398,1.398s1.398-0.626,1.398-1.398c0-0.373-0.152-0.707-0.391-0.958
			c2.061-0.463,3.605-2.298,3.605-4.493C19.812,23.237,19.562,22.986,19.253,22.986z"/>
	</g>
</g>
</svg>