<svg width="395" height="654" viewBox="0 0 395 654" fill="none" xmlns="http://www.w3.org/2000/svg">
<path d="M-150.921 632.129C-150.719 641.4 -113.492 650.743 -106.549 651.838C-91.4928 654.21 -74.6132 653.36 -59.8486 649.466C-28.5564 641.213 -1.89687 618.01 13.2941 590.074C53.9125 515.377 2.98264 412.583 71.4279 349.426C129.075 296.233 190.816 348.903 250.697 364.035C282.736 372.132 317.989 373.367 347.714 359.024C391.21 338.034 402.693 283.537 390.259 240.141C382.077 211.587 364.008 186.539 341.266 167.47C318.036 147.99 288.923 136.635 272.285 109.975C252.187 77.7719 246.017 36.9063 259.731 1.09203C259.455 2.22685 255.391 0.627879 254.335 0.108643H-161.957C-161.957 0.576697 -164.643 1.04525 -164.643 1.51381C-164.643 1.51381 -150.922 632.065 -150.921 632.129Z" fill="#5380C1"/>
</svg>
