<svg width="345" height="634" viewBox="0 0 345 634" fill="none" xmlns="http://www.w3.org/2000/svg">
<path d="M392.274 604.61C380.072 633.706 314.165 635.51 282.693 632.505C230.91 627.56 178.443 598.617 159.409 550.302C143.586 510.14 152.96 464.742 166.034 423.622C170.14 410.709 174.627 397.743 175.669 384.234C179.288 337.311 138.597 295.581 92.9102 283.872C76.499 279.666 59.1659 278.365 43.7941 271.25C22.1601 261.237 6.59285 239.906 2.01344 216.554C-2.56607 193.202 3.40401 168.316 16.6594 148.546C33.3881 123.595 60.0918 107.411 81.7841 86.6112C103.476 65.8118 121.094 35.1903 111.605 6.6912C118.917 5.21645 122.937 -0.913959 130.292 0.340439L493.106 62.2188L399.677 599.451C396.599 598.926 395.216 603.568 392.274 604.61Z" fill="#5380C1"/>
</svg>
