<svg width="73" height="64" viewBox="0 0 73 64" fill="none" xmlns="http://www.w3.org/2000/svg">
<path d="M7.24922 3.52515C7.24922 5.41195 5.70642 6.94215 3.80332 6.94215C1.90022 6.94215 0.357422 5.41195 0.357422 3.52515C0.357422 1.63775 1.90022 0.108154 3.80332 0.108154C5.70642 0.108154 7.24922 1.63775 7.24922 3.52515ZM28.9519 3.52515C28.9519 5.41195 27.4094 6.94215 25.5061 6.94215C23.603 6.94215 22.0601 5.41195 22.0601 3.52515C22.0601 1.63775 23.603 0.108154 25.5061 0.108154C27.4094 0.108154 28.9519 1.63775 28.9519 3.52515ZM50.655 3.52515C50.655 5.41195 49.1122 6.94215 47.2091 6.94215C45.306 6.94215 43.7632 5.41195 43.7632 3.52515C43.7632 1.63775 45.306 0.108154 47.2091 0.108154C49.1122 0.108154 50.655 1.63775 50.655 3.52515ZM72.3578 3.52515C72.3578 5.41195 70.8152 6.94215 68.9119 6.94215C67.0087 6.94215 65.466 5.41195 65.466 3.52515C65.466 1.63775 67.0087 0.108154 68.9119 0.108154C70.8152 0.108154 72.3578 1.63775 72.3578 3.52515ZM7.24922 22.2472C7.24922 24.1345 5.70642 25.6642 3.80332 25.6642C1.90022 25.6642 0.357422 24.1345 0.357422 22.2472C0.357422 20.3599 1.90022 18.8302 3.80332 18.8302C5.70642 18.8302 7.24922 20.3599 7.24922 22.2472ZM28.9519 22.2472C28.9519 24.1345 27.4094 25.6642 25.5061 25.6642C23.603 25.6642 22.0601 24.1345 22.0601 22.2472C22.0601 20.3599 23.603 18.8302 25.5061 18.8302C27.4094 18.8302 28.9519 20.3599 28.9519 22.2472ZM50.655 22.2472C50.655 24.1345 49.1122 25.6642 47.2091 25.6642C45.306 25.6642 43.7632 24.1345 43.7632 22.2472C43.7632 20.3599 45.306 18.8302 47.2091 18.8302C49.1122 18.8302 50.655 20.3599 50.655 22.2472ZM72.3578 22.2472C72.3578 24.1345 70.8152 25.6642 68.9119 25.6642C67.0087 25.6642 65.466 24.1345 65.466 22.2472C65.466 20.3599 67.0087 18.8302 68.9119 18.8302C70.8152 18.8302 72.3578 20.3599 72.3578 22.2472ZM7.24922 40.9693C7.24922 42.8561 5.70642 44.3863 3.80332 44.3863C1.90022 44.3863 0.357422 42.8561 0.357422 40.9693C0.357422 39.0824 1.90022 37.5523 3.80332 37.5523C5.70642 37.5523 7.24922 39.0824 7.24922 40.9693ZM28.9519 40.9693C28.9519 42.8561 27.4094 44.3863 25.5061 44.3863C23.603 44.3863 22.0601 42.8561 22.0601 40.9693C22.0601 39.0824 23.603 37.5523 25.5061 37.5523C27.4094 37.5523 28.9519 39.0824 28.9519 40.9693ZM50.655 40.9693C50.655 42.8561 49.1122 44.3863 47.2091 44.3863C45.306 44.3863 43.7632 42.8561 43.7632 40.9693C43.7632 39.0824 45.306 37.5523 47.2091 37.5523C49.1122 37.5523 50.655 39.0824 50.655 40.9693ZM72.3578 40.9693C72.3578 42.8561 70.8152 44.3863 68.9119 44.3863C67.0087 44.3863 65.466 42.8561 65.466 40.9693C65.466 39.0824 67.0087 37.5523 68.9119 37.5523C70.8152 37.5523 72.3578 39.0824 72.3578 40.9693ZM7.24922 59.6913C7.24922 61.5782 5.70642 63.1084 3.80332 63.1084C1.90022 63.1084 0.357422 61.5782 0.357422 59.6913C0.357422 57.8045 1.90022 56.2743 3.80332 56.2743C5.70642 56.2743 7.24922 57.8045 7.24922 59.6913ZM28.9519 59.6913C28.9519 61.5782 27.4094 63.1084 25.5061 63.1084C23.603 63.1084 22.0601 61.5782 22.0601 59.6913C22.0601 57.8045 23.603 56.2743 25.5061 56.2743C27.4094 56.2743 28.9519 57.8045 28.9519 59.6913ZM50.655 59.6913C50.655 61.5782 49.1122 63.1084 47.2091 63.1084C45.306 63.1084 43.7632 61.5782 43.7632 59.6913C43.7632 57.8045 45.306 56.2743 47.2091 56.2743C49.1122 56.2743 50.655 57.8045 50.655 59.6913ZM72.3578 59.6913C72.3578 61.5782 70.8152 63.1084 68.9119 63.1084C67.0087 63.1084 65.466 61.5782 65.466 59.6913C65.466 57.8045 67.0087 56.2743 68.9119 56.2743C70.8152 56.2743 72.3578 57.8045 72.3578 59.6913Z" fill="#E6E6E6"/>
<path d="M7.24922 3.52515C7.24922 5.41195 5.70642 6.94215 3.80332 6.94215C1.90022 6.94215 0.357422 5.41195 0.357422 3.52515C0.357422 1.63775 1.90022 0.108154 3.80332 0.108154C5.70642 0.108154 7.24922 1.63775 7.24922 3.52515ZM28.9519 3.52515C28.9519 5.41195 27.4094 6.94215 25.5061 6.94215C23.603 6.94215 22.0601 5.41195 22.0601 3.52515C22.0601 1.63775 23.603 0.108154 25.5061 0.108154C27.4094 0.108154 28.9519 1.63775 28.9519 3.52515ZM50.655 3.52515C50.655 5.41195 49.1122 6.94215 47.2091 6.94215C45.306 6.94215 43.7632 5.41195 43.7632 3.52515C43.7632 1.63775 45.306 0.108154 47.2091 0.108154C49.1122 0.108154 50.655 1.63775 50.655 3.52515ZM72.3578 3.52515C72.3578 5.41195 70.8152 6.94215 68.9119 6.94215C67.0087 6.94215 65.466 5.41195 65.466 3.52515C65.466 1.63775 67.0087 0.108154 68.9119 0.108154C70.8152 0.108154 72.3578 1.63775 72.3578 3.52515ZM7.24922 22.2472C7.24922 24.1345 5.70642 25.6642 3.80332 25.6642C1.90022 25.6642 0.357422 24.1345 0.357422 22.2472C0.357422 20.3599 1.90022 18.8302 3.80332 18.8302C5.70642 18.8302 7.24922 20.3599 7.24922 22.2472ZM28.9519 22.2472C28.9519 24.1345 27.4094 25.6642 25.5061 25.6642C23.603 25.6642 22.0601 24.1345 22.0601 22.2472C22.0601 20.3599 23.603 18.8302 25.5061 18.8302C27.4094 18.8302 28.9519 20.3599 28.9519 22.2472ZM50.655 22.2472C50.655 24.1345 49.1122 25.6642 47.2091 25.6642C45.306 25.6642 43.7632 24.1345 43.7632 22.2472C43.7632 20.3599 45.306 18.8302 47.2091 18.8302C49.1122 18.8302 50.655 20.3599 50.655 22.2472ZM72.3578 22.2472C72.3578 24.1345 70.8152 25.6642 68.9119 25.6642C67.0087 25.6642 65.466 24.1345 65.466 22.2472C65.466 20.3599 67.0087 18.8302 68.9119 18.8302C70.8152 18.8302 72.3578 20.3599 72.3578 22.2472ZM7.24922 40.9693C7.24922 42.8561 5.70642 44.3863 3.80332 44.3863C1.90022 44.3863 0.357422 42.8561 0.357422 40.9693C0.357422 39.0824 1.90022 37.5523 3.80332 37.5523C5.70642 37.5523 7.24922 39.0824 7.24922 40.9693ZM28.9519 40.9693C28.9519 42.8561 27.4094 44.3863 25.5061 44.3863C23.603 44.3863 22.0601 42.8561 22.0601 40.9693C22.0601 39.0824 23.603 37.5523 25.5061 37.5523C27.4094 37.5523 28.9519 39.0824 28.9519 40.9693ZM50.655 40.9693C50.655 42.8561 49.1122 44.3863 47.2091 44.3863C45.306 44.3863 43.7632 42.8561 43.7632 40.9693C43.7632 39.0824 45.306 37.5523 47.2091 37.5523C49.1122 37.5523 50.655 39.0824 50.655 40.9693ZM72.3578 40.9693C72.3578 42.8561 70.8152 44.3863 68.9119 44.3863C67.0087 44.3863 65.466 42.8561 65.466 40.9693C65.466 39.0824 67.0087 37.5523 68.9119 37.5523C70.8152 37.5523 72.3578 39.0824 72.3578 40.9693ZM7.24922 59.6913C7.24922 61.5782 5.70642 63.1084 3.80332 63.1084C1.90022 63.1084 0.357422 61.5782 0.357422 59.6913C0.357422 57.8045 1.90022 56.2743 3.80332 56.2743C5.70642 56.2743 7.24922 57.8045 7.24922 59.6913ZM28.9519 59.6913C28.9519 61.5782 27.4094 63.1084 25.5061 63.1084C23.603 63.1084 22.0601 61.5782 22.0601 59.6913C22.0601 57.8045 23.603 56.2743 25.5061 56.2743C27.4094 56.2743 28.9519 57.8045 28.9519 59.6913ZM50.655 59.6913C50.655 61.5782 49.1122 63.1084 47.2091 63.1084C45.306 63.1084 43.7632 61.5782 43.7632 59.6913C43.7632 57.8045 45.306 56.2743 47.2091 56.2743C49.1122 56.2743 50.655 57.8045 50.655 59.6913ZM72.3578 59.6913C72.3578 61.5782 70.8152 63.1084 68.9119 63.1084C67.0087 63.1084 65.466 61.5782 65.466 59.6913C65.466 57.8045 67.0087 56.2743 68.9119 56.2743C70.8152 56.2743 72.3578 57.8045 72.3578 59.6913Z" fill="#E6E6E6"/>
<path d="M7.24922 3.52515C7.24922 5.41195 5.70642 6.94215 3.80332 6.94215C1.90022 6.94215 0.357422 5.41195 0.357422 3.52515C0.357422 1.63775 1.90022 0.108154 3.80332 0.108154C5.70642 0.108154 7.24922 1.63775 7.24922 3.52515ZM28.9519 3.52515C28.9519 5.41195 27.4094 6.94215 25.5061 6.94215C23.603 6.94215 22.0601 5.41195 22.0601 3.52515C22.0601 1.63775 23.603 0.108154 25.5061 0.108154C27.4094 0.108154 28.9519 1.63775 28.9519 3.52515ZM50.655 3.52515C50.655 5.41195 49.1122 6.94215 47.2091 6.94215C45.306 6.94215 43.7632 5.41195 43.7632 3.52515C43.7632 1.63775 45.306 0.108154 47.2091 0.108154C49.1122 0.108154 50.655 1.63775 50.655 3.52515ZM72.3578 3.52515C72.3578 5.41195 70.8152 6.94215 68.9119 6.94215C67.0087 6.94215 65.466 5.41195 65.466 3.52515C65.466 1.63775 67.0087 0.108154 68.9119 0.108154C70.8152 0.108154 72.3578 1.63775 72.3578 3.52515ZM7.24922 22.2472C7.24922 24.1345 5.70642 25.6642 3.80332 25.6642C1.90022 25.6642 0.357422 24.1345 0.357422 22.2472C0.357422 20.3599 1.90022 18.8302 3.80332 18.8302C5.70642 18.8302 7.24922 20.3599 7.24922 22.2472ZM28.9519 22.2472C28.9519 24.1345 27.4094 25.6642 25.5061 25.6642C23.603 25.6642 22.0601 24.1345 22.0601 22.2472C22.0601 20.3599 23.603 18.8302 25.5061 18.8302C27.4094 18.8302 28.9519 20.3599 28.9519 22.2472ZM50.655 22.2472C50.655 24.1345 49.1122 25.6642 47.2091 25.6642C45.306 25.6642 43.7632 24.1345 43.7632 22.2472C43.7632 20.3599 45.306 18.8302 47.2091 18.8302C49.1122 18.8302 50.655 20.3599 50.655 22.2472ZM72.3578 22.2472C72.3578 24.1345 70.8152 25.6642 68.9119 25.6642C67.0087 25.6642 65.466 24.1345 65.466 22.2472C65.466 20.3599 67.0087 18.8302 68.9119 18.8302C70.8152 18.8302 72.3578 20.3599 72.3578 22.2472ZM7.24922 40.9693C7.24922 42.8561 5.70642 44.3863 3.80332 44.3863C1.90022 44.3863 0.357422 42.8561 0.357422 40.9693C0.357422 39.0824 1.90022 37.5523 3.80332 37.5523C5.70642 37.5523 7.24922 39.0824 7.24922 40.9693ZM28.9519 40.9693C28.9519 42.8561 27.4094 44.3863 25.5061 44.3863C23.603 44.3863 22.0601 42.8561 22.0601 40.9693C22.0601 39.0824 23.603 37.5523 25.5061 37.5523C27.4094 37.5523 28.9519 39.0824 28.9519 40.9693ZM50.655 40.9693C50.655 42.8561 49.1122 44.3863 47.2091 44.3863C45.306 44.3863 43.7632 42.8561 43.7632 40.9693C43.7632 39.0824 45.306 37.5523 47.2091 37.5523C49.1122 37.5523 50.655 39.0824 50.655 40.9693ZM72.3578 40.9693C72.3578 42.8561 70.8152 44.3863 68.9119 44.3863C67.0087 44.3863 65.466 42.8561 65.466 40.9693C65.466 39.0824 67.0087 37.5523 68.9119 37.5523C70.8152 37.5523 72.3578 39.0824 72.3578 40.9693ZM7.24922 59.6913C7.24922 61.5782 5.70642 63.1084 3.80332 63.1084C1.90022 63.1084 0.357422 61.5782 0.357422 59.6913C0.357422 57.8045 1.90022 56.2743 3.80332 56.2743C5.70642 56.2743 7.24922 57.8045 7.24922 59.6913ZM28.9519 59.6913C28.9519 61.5782 27.4094 63.1084 25.5061 63.1084C23.603 63.1084 22.0601 61.5782 22.0601 59.6913C22.0601 57.8045 23.603 56.2743 25.5061 56.2743C27.4094 56.2743 28.9519 57.8045 28.9519 59.6913ZM50.655 59.6913C50.655 61.5782 49.1122 63.1084 47.2091 63.1084C45.306 63.1084 43.7632 61.5782 43.7632 59.6913C43.7632 57.8045 45.306 56.2743 47.2091 56.2743C49.1122 56.2743 50.655 57.8045 50.655 59.6913ZM72.3578 59.6913C72.3578 61.5782 70.8152 63.1084 68.9119 63.1084C67.0087 63.1084 65.466 61.5782 65.466 59.6913C65.466 57.8045 67.0087 56.2743 68.9119 56.2743C70.8152 56.2743 72.3578 57.8045 72.3578 59.6913Z" fill="#E6E6E6"/>
<path d="M7.24922 3.52515C7.24922 5.41195 5.70642 6.94215 3.80332 6.94215C1.90022 6.94215 0.357422 5.41195 0.357422 3.52515C0.357422 1.63775 1.90022 0.108154 3.80332 0.108154C5.70642 0.108154 7.24922 1.63775 7.24922 3.52515ZM28.9519 3.52515C28.9519 5.41195 27.4094 6.94215 25.5061 6.94215C23.603 6.94215 22.0601 5.41195 22.0601 3.52515C22.0601 1.63775 23.603 0.108154 25.5061 0.108154C27.4094 0.108154 28.9519 1.63775 28.9519 3.52515ZM50.655 3.52515C50.655 5.41195 49.1122 6.94215 47.2091 6.94215C45.306 6.94215 43.7632 5.41195 43.7632 3.52515C43.7632 1.63775 45.306 0.108154 47.2091 0.108154C49.1122 0.108154 50.655 1.63775 50.655 3.52515ZM72.3578 3.52515C72.3578 5.41195 70.8152 6.94215 68.9119 6.94215C67.0087 6.94215 65.466 5.41195 65.466 3.52515C65.466 1.63775 67.0087 0.108154 68.9119 0.108154C70.8152 0.108154 72.3578 1.63775 72.3578 3.52515ZM7.24922 22.2472C7.24922 24.1345 5.70642 25.6642 3.80332 25.6642C1.90022 25.6642 0.357422 24.1345 0.357422 22.2472C0.357422 20.3599 1.90022 18.8302 3.80332 18.8302C5.70642 18.8302 7.24922 20.3599 7.24922 22.2472ZM28.9519 22.2472C28.9519 24.1345 27.4094 25.6642 25.5061 25.6642C23.603 25.6642 22.0601 24.1345 22.0601 22.2472C22.0601 20.3599 23.603 18.8302 25.5061 18.8302C27.4094 18.8302 28.9519 20.3599 28.9519 22.2472ZM50.655 22.2472C50.655 24.1345 49.1122 25.6642 47.2091 25.6642C45.306 25.6642 43.7632 24.1345 43.7632 22.2472C43.7632 20.3599 45.306 18.8302 47.2091 18.8302C49.1122 18.8302 50.655 20.3599 50.655 22.2472ZM72.3578 22.2472C72.3578 24.1345 70.8152 25.6642 68.9119 25.6642C67.0087 25.6642 65.466 24.1345 65.466 22.2472C65.466 20.3599 67.0087 18.8302 68.9119 18.8302C70.8152 18.8302 72.3578 20.3599 72.3578 22.2472ZM7.24922 40.9693C7.24922 42.8561 5.70642 44.3863 3.80332 44.3863C1.90022 44.3863 0.357422 42.8561 0.357422 40.9693C0.357422 39.0824 1.90022 37.5523 3.80332 37.5523C5.70642 37.5523 7.24922 39.0824 7.24922 40.9693ZM28.9519 40.9693C28.9519 42.8561 27.4094 44.3863 25.5061 44.3863C23.603 44.3863 22.0601 42.8561 22.0601 40.9693C22.0601 39.0824 23.603 37.5523 25.5061 37.5523C27.4094 37.5523 28.9519 39.0824 28.9519 40.9693ZM50.655 40.9693C50.655 42.8561 49.1122 44.3863 47.2091 44.3863C45.306 44.3863 43.7632 42.8561 43.7632 40.9693C43.7632 39.0824 45.306 37.5523 47.2091 37.5523C49.1122 37.5523 50.655 39.0824 50.655 40.9693ZM72.3578 40.9693C72.3578 42.8561 70.8152 44.3863 68.9119 44.3863C67.0087 44.3863 65.466 42.8561 65.466 40.9693C65.466 39.0824 67.0087 37.5523 68.9119 37.5523C70.8152 37.5523 72.3578 39.0824 72.3578 40.9693ZM7.24922 59.6913C7.24922 61.5782 5.70642 63.1084 3.80332 63.1084C1.90022 63.1084 0.357422 61.5782 0.357422 59.6913C0.357422 57.8045 1.90022 56.2743 3.80332 56.2743C5.70642 56.2743 7.24922 57.8045 7.24922 59.6913ZM28.9519 59.6913C28.9519 61.5782 27.4094 63.1084 25.5061 63.1084C23.603 63.1084 22.0601 61.5782 22.0601 59.6913C22.0601 57.8045 23.603 56.2743 25.5061 56.2743C27.4094 56.2743 28.9519 57.8045 28.9519 59.6913ZM50.655 59.6913C50.655 61.5782 49.1122 63.1084 47.2091 63.1084C45.306 63.1084 43.7632 61.5782 43.7632 59.6913C43.7632 57.8045 45.306 56.2743 47.2091 56.2743C49.1122 56.2743 50.655 57.8045 50.655 59.6913ZM72.3578 59.6913C72.3578 61.5782 70.8152 63.1084 68.9119 63.1084C67.0087 63.1084 65.466 61.5782 65.466 59.6913C65.466 57.8045 67.0087 56.2743 68.9119 56.2743C70.8152 56.2743 72.3578 57.8045 72.3578 59.6913Z" fill="#E6E6E6"/>
<path d="M7.24922 3.52515C7.24922 5.41195 5.70642 6.94215 3.80332 6.94215C1.90022 6.94215 0.357422 5.41195 0.357422 3.52515C0.357422 1.63775 1.90022 0.108154 3.80332 0.108154C5.70642 0.108154 7.24922 1.63775 7.24922 3.52515ZM28.9519 3.52515C28.9519 5.41195 27.4094 6.94215 25.5061 6.94215C23.603 6.94215 22.0601 5.41195 22.0601 3.52515C22.0601 1.63775 23.603 0.108154 25.5061 0.108154C27.4094 0.108154 28.9519 1.63775 28.9519 3.52515ZM50.655 3.52515C50.655 5.41195 49.1122 6.94215 47.2091 6.94215C45.306 6.94215 43.7632 5.41195 43.7632 3.52515C43.7632 1.63775 45.306 0.108154 47.2091 0.108154C49.1122 0.108154 50.655 1.63775 50.655 3.52515ZM72.3578 3.52515C72.3578 5.41195 70.8152 6.94215 68.9119 6.94215C67.0087 6.94215 65.466 5.41195 65.466 3.52515C65.466 1.63775 67.0087 0.108154 68.9119 0.108154C70.8152 0.108154 72.3578 1.63775 72.3578 3.52515ZM7.24922 22.2472C7.24922 24.1345 5.70642 25.6642 3.80332 25.6642C1.90022 25.6642 0.357422 24.1345 0.357422 22.2472C0.357422 20.3599 1.90022 18.8302 3.80332 18.8302C5.70642 18.8302 7.24922 20.3599 7.24922 22.2472ZM28.9519 22.2472C28.9519 24.1345 27.4094 25.6642 25.5061 25.6642C23.603 25.6642 22.0601 24.1345 22.0601 22.2472C22.0601 20.3599 23.603 18.8302 25.5061 18.8302C27.4094 18.8302 28.9519 20.3599 28.9519 22.2472ZM50.655 22.2472C50.655 24.1345 49.1122 25.6642 47.2091 25.6642C45.306 25.6642 43.7632 24.1345 43.7632 22.2472C43.7632 20.3599 45.306 18.8302 47.2091 18.8302C49.1122 18.8302 50.655 20.3599 50.655 22.2472ZM72.3578 22.2472C72.3578 24.1345 70.8152 25.6642 68.9119 25.6642C67.0087 25.6642 65.466 24.1345 65.466 22.2472C65.466 20.3599 67.0087 18.8302 68.9119 18.8302C70.8152 18.8302 72.3578 20.3599 72.3578 22.2472ZM7.24922 40.9693C7.24922 42.8561 5.70642 44.3863 3.80332 44.3863C1.90022 44.3863 0.357422 42.8561 0.357422 40.9693C0.357422 39.0824 1.90022 37.5523 3.80332 37.5523C5.70642 37.5523 7.24922 39.0824 7.24922 40.9693ZM28.9519 40.9693C28.9519 42.8561 27.4094 44.3863 25.5061 44.3863C23.603 44.3863 22.0601 42.8561 22.0601 40.9693C22.0601 39.0824 23.603 37.5523 25.5061 37.5523C27.4094 37.5523 28.9519 39.0824 28.9519 40.9693ZM50.655 40.9693C50.655 42.8561 49.1122 44.3863 47.2091 44.3863C45.306 44.3863 43.7632 42.8561 43.7632 40.9693C43.7632 39.0824 45.306 37.5523 47.2091 37.5523C49.1122 37.5523 50.655 39.0824 50.655 40.9693ZM72.3578 40.9693C72.3578 42.8561 70.8152 44.3863 68.9119 44.3863C67.0087 44.3863 65.466 42.8561 65.466 40.9693C65.466 39.0824 67.0087 37.5523 68.9119 37.5523C70.8152 37.5523 72.3578 39.0824 72.3578 40.9693ZM7.24922 59.6913C7.24922 61.5782 5.70642 63.1084 3.80332 63.1084C1.90022 63.1084 0.357422 61.5782 0.357422 59.6913C0.357422 57.8045 1.90022 56.2743 3.80332 56.2743C5.70642 56.2743 7.24922 57.8045 7.24922 59.6913ZM28.9519 59.6913C28.9519 61.5782 27.4094 63.1084 25.5061 63.1084C23.603 63.1084 22.0601 61.5782 22.0601 59.6913C22.0601 57.8045 23.603 56.2743 25.5061 56.2743C27.4094 56.2743 28.9519 57.8045 28.9519 59.6913ZM50.655 59.6913C50.655 61.5782 49.1122 63.1084 47.2091 63.1084C45.306 63.1084 43.7632 61.5782 43.7632 59.6913C43.7632 57.8045 45.306 56.2743 47.2091 56.2743C49.1122 56.2743 50.655 57.8045 50.655 59.6913ZM72.3578 59.6913C72.3578 61.5782 70.8152 63.1084 68.9119 63.1084C67.0087 63.1084 65.466 61.5782 65.466 59.6913C65.466 57.8045 67.0087 56.2743 68.9119 56.2743C70.8152 56.2743 72.3578 57.8045 72.3578 59.6913Z" fill="#E6E6E6"/>
<path d="M7.24922 3.52515C7.24922 5.41195 5.70642 6.94215 3.80332 6.94215C1.90022 6.94215 0.357422 5.41195 0.357422 3.52515C0.357422 1.63775 1.90022 0.108154 3.80332 0.108154C5.70642 0.108154 7.24922 1.63775 7.24922 3.52515ZM28.9519 3.52515C28.9519 5.41195 27.4094 6.94215 25.5061 6.94215C23.603 6.94215 22.0601 5.41195 22.0601 3.52515C22.0601 1.63775 23.603 0.108154 25.5061 0.108154C27.4094 0.108154 28.9519 1.63775 28.9519 3.52515ZM50.655 3.52515C50.655 5.41195 49.1122 6.94215 47.2091 6.94215C45.306 6.94215 43.7632 5.41195 43.7632 3.52515C43.7632 1.63775 45.306 0.108154 47.2091 0.108154C49.1122 0.108154 50.655 1.63775 50.655 3.52515ZM72.3578 3.52515C72.3578 5.41195 70.8152 6.94215 68.9119 6.94215C67.0087 6.94215 65.466 5.41195 65.466 3.52515C65.466 1.63775 67.0087 0.108154 68.9119 0.108154C70.8152 0.108154 72.3578 1.63775 72.3578 3.52515ZM7.24922 22.2472C7.24922 24.1345 5.70642 25.6642 3.80332 25.6642C1.90022 25.6642 0.357422 24.1345 0.357422 22.2472C0.357422 20.3599 1.90022 18.8302 3.80332 18.8302C5.70642 18.8302 7.24922 20.3599 7.24922 22.2472ZM28.9519 22.2472C28.9519 24.1345 27.4094 25.6642 25.5061 25.6642C23.603 25.6642 22.0601 24.1345 22.0601 22.2472C22.0601 20.3599 23.603 18.8302 25.5061 18.8302C27.4094 18.8302 28.9519 20.3599 28.9519 22.2472ZM50.655 22.2472C50.655 24.1345 49.1122 25.6642 47.2091 25.6642C45.306 25.6642 43.7632 24.1345 43.7632 22.2472C43.7632 20.3599 45.306 18.8302 47.2091 18.8302C49.1122 18.8302 50.655 20.3599 50.655 22.2472ZM72.3578 22.2472C72.3578 24.1345 70.8152 25.6642 68.9119 25.6642C67.0087 25.6642 65.466 24.1345 65.466 22.2472C65.466 20.3599 67.0087 18.8302 68.9119 18.8302C70.8152 18.8302 72.3578 20.3599 72.3578 22.2472ZM7.24922 40.9693C7.24922 42.8561 5.70642 44.3863 3.80332 44.3863C1.90022 44.3863 0.357422 42.8561 0.357422 40.9693C0.357422 39.0824 1.90022 37.5523 3.80332 37.5523C5.70642 37.5523 7.24922 39.0824 7.24922 40.9693ZM28.9519 40.9693C28.9519 42.8561 27.4094 44.3863 25.5061 44.3863C23.603 44.3863 22.0601 42.8561 22.0601 40.9693C22.0601 39.0824 23.603 37.5523 25.5061 37.5523C27.4094 37.5523 28.9519 39.0824 28.9519 40.9693ZM50.655 40.9693C50.655 42.8561 49.1122 44.3863 47.2091 44.3863C45.306 44.3863 43.7632 42.8561 43.7632 40.9693C43.7632 39.0824 45.306 37.5523 47.2091 37.5523C49.1122 37.5523 50.655 39.0824 50.655 40.9693ZM72.3578 40.9693C72.3578 42.8561 70.8152 44.3863 68.9119 44.3863C67.0087 44.3863 65.466 42.8561 65.466 40.9693C65.466 39.0824 67.0087 37.5523 68.9119 37.5523C70.8152 37.5523 72.3578 39.0824 72.3578 40.9693ZM7.24922 59.6913C7.24922 61.5782 5.70642 63.1084 3.80332 63.1084C1.90022 63.1084 0.357422 61.5782 0.357422 59.6913C0.357422 57.8045 1.90022 56.2743 3.80332 56.2743C5.70642 56.2743 7.24922 57.8045 7.24922 59.6913ZM28.9519 59.6913C28.9519 61.5782 27.4094 63.1084 25.5061 63.1084C23.603 63.1084 22.0601 61.5782 22.0601 59.6913C22.0601 57.8045 23.603 56.2743 25.5061 56.2743C27.4094 56.2743 28.9519 57.8045 28.9519 59.6913ZM50.655 59.6913C50.655 61.5782 49.1122 63.1084 47.2091 63.1084C45.306 63.1084 43.7632 61.5782 43.7632 59.6913C43.7632 57.8045 45.306 56.2743 47.2091 56.2743C49.1122 56.2743 50.655 57.8045 50.655 59.6913ZM72.3578 59.6913C72.3578 61.5782 70.8152 63.1084 68.9119 63.1084C67.0087 63.1084 65.466 61.5782 65.466 59.6913C65.466 57.8045 67.0087 56.2743 68.9119 56.2743C70.8152 56.2743 72.3578 57.8045 72.3578 59.6913Z" fill="#E6E6E6"/>
<path d="M7.24922 3.52515C7.24922 5.41195 5.70642 6.94215 3.80332 6.94215C1.90022 6.94215 0.357422 5.41195 0.357422 3.52515C0.357422 1.63775 1.90022 0.108154 3.80332 0.108154C5.70642 0.108154 7.24922 1.63775 7.24922 3.52515ZM28.9519 3.52515C28.9519 5.41195 27.4094 6.94215 25.5061 6.94215C23.603 6.94215 22.0601 5.41195 22.0601 3.52515C22.0601 1.63775 23.603 0.108154 25.5061 0.108154C27.4094 0.108154 28.9519 1.63775 28.9519 3.52515ZM50.655 3.52515C50.655 5.41195 49.1122 6.94215 47.2091 6.94215C45.306 6.94215 43.7632 5.41195 43.7632 3.52515C43.7632 1.63775 45.306 0.108154 47.2091 0.108154C49.1122 0.108154 50.655 1.63775 50.655 3.52515ZM72.3578 3.52515C72.3578 5.41195 70.8152 6.94215 68.9119 6.94215C67.0087 6.94215 65.466 5.41195 65.466 3.52515C65.466 1.63775 67.0087 0.108154 68.9119 0.108154C70.8152 0.108154 72.3578 1.63775 72.3578 3.52515ZM7.24922 22.2472C7.24922 24.1345 5.70642 25.6642 3.80332 25.6642C1.90022 25.6642 0.357422 24.1345 0.357422 22.2472C0.357422 20.3599 1.90022 18.8302 3.80332 18.8302C5.70642 18.8302 7.24922 20.3599 7.24922 22.2472ZM28.9519 22.2472C28.9519 24.1345 27.4094 25.6642 25.5061 25.6642C23.603 25.6642 22.0601 24.1345 22.0601 22.2472C22.0601 20.3599 23.603 18.8302 25.5061 18.8302C27.4094 18.8302 28.9519 20.3599 28.9519 22.2472ZM50.655 22.2472C50.655 24.1345 49.1122 25.6642 47.2091 25.6642C45.306 25.6642 43.7632 24.1345 43.7632 22.2472C43.7632 20.3599 45.306 18.8302 47.2091 18.8302C49.1122 18.8302 50.655 20.3599 50.655 22.2472ZM72.3578 22.2472C72.3578 24.1345 70.8152 25.6642 68.9119 25.6642C67.0087 25.6642 65.466 24.1345 65.466 22.2472C65.466 20.3599 67.0087 18.8302 68.9119 18.8302C70.8152 18.8302 72.3578 20.3599 72.3578 22.2472ZM7.24922 40.9693C7.24922 42.8561 5.70642 44.3863 3.80332 44.3863C1.90022 44.3863 0.357422 42.8561 0.357422 40.9693C0.357422 39.0824 1.90022 37.5523 3.80332 37.5523C5.70642 37.5523 7.24922 39.0824 7.24922 40.9693ZM28.9519 40.9693C28.9519 42.8561 27.4094 44.3863 25.5061 44.3863C23.603 44.3863 22.0601 42.8561 22.0601 40.9693C22.0601 39.0824 23.603 37.5523 25.5061 37.5523C27.4094 37.5523 28.9519 39.0824 28.9519 40.9693ZM50.655 40.9693C50.655 42.8561 49.1122 44.3863 47.2091 44.3863C45.306 44.3863 43.7632 42.8561 43.7632 40.9693C43.7632 39.0824 45.306 37.5523 47.2091 37.5523C49.1122 37.5523 50.655 39.0824 50.655 40.9693ZM72.3578 40.9693C72.3578 42.8561 70.8152 44.3863 68.9119 44.3863C67.0087 44.3863 65.466 42.8561 65.466 40.9693C65.466 39.0824 67.0087 37.5523 68.9119 37.5523C70.8152 37.5523 72.3578 39.0824 72.3578 40.9693ZM7.24922 59.6913C7.24922 61.5782 5.70642 63.1084 3.80332 63.1084C1.90022 63.1084 0.357422 61.5782 0.357422 59.6913C0.357422 57.8045 1.90022 56.2743 3.80332 56.2743C5.70642 56.2743 7.24922 57.8045 7.24922 59.6913ZM28.9519 59.6913C28.9519 61.5782 27.4094 63.1084 25.5061 63.1084C23.603 63.1084 22.0601 61.5782 22.0601 59.6913C22.0601 57.8045 23.603 56.2743 25.5061 56.2743C27.4094 56.2743 28.9519 57.8045 28.9519 59.6913ZM50.655 59.6913C50.655 61.5782 49.1122 63.1084 47.2091 63.1084C45.306 63.1084 43.7632 61.5782 43.7632 59.6913C43.7632 57.8045 45.306 56.2743 47.2091 56.2743C49.1122 56.2743 50.655 57.8045 50.655 59.6913ZM72.3578 59.6913C72.3578 61.5782 70.8152 63.1084 68.9119 63.1084C67.0087 63.1084 65.466 61.5782 65.466 59.6913C65.466 57.8045 67.0087 56.2743 68.9119 56.2743C70.8152 56.2743 72.3578 57.8045 72.3578 59.6913Z" fill="#E6E6E6"/>
<path d="M7.24922 3.52515C7.24922 5.41195 5.70642 6.94215 3.80332 6.94215C1.90022 6.94215 0.357422 5.41195 0.357422 3.52515C0.357422 1.63775 1.90022 0.108154 3.80332 0.108154C5.70642 0.108154 7.24922 1.63775 7.24922 3.52515ZM28.9519 3.52515C28.9519 5.41195 27.4094 6.94215 25.5061 6.94215C23.603 6.94215 22.0601 5.41195 22.0601 3.52515C22.0601 1.63775 23.603 0.108154 25.5061 0.108154C27.4094 0.108154 28.9519 1.63775 28.9519 3.52515ZM50.655 3.52515C50.655 5.41195 49.1122 6.94215 47.2091 6.94215C45.306 6.94215 43.7632 5.41195 43.7632 3.52515C43.7632 1.63775 45.306 0.108154 47.2091 0.108154C49.1122 0.108154 50.655 1.63775 50.655 3.52515ZM72.3578 3.52515C72.3578 5.41195 70.8152 6.94215 68.9119 6.94215C67.0087 6.94215 65.466 5.41195 65.466 3.52515C65.466 1.63775 67.0087 0.108154 68.9119 0.108154C70.8152 0.108154 72.3578 1.63775 72.3578 3.52515ZM7.24922 22.2472C7.24922 24.1345 5.70642 25.6642 3.80332 25.6642C1.90022 25.6642 0.357422 24.1345 0.357422 22.2472C0.357422 20.3599 1.90022 18.8302 3.80332 18.8302C5.70642 18.8302 7.24922 20.3599 7.24922 22.2472ZM28.9519 22.2472C28.9519 24.1345 27.4094 25.6642 25.5061 25.6642C23.603 25.6642 22.0601 24.1345 22.0601 22.2472C22.0601 20.3599 23.603 18.8302 25.5061 18.8302C27.4094 18.8302 28.9519 20.3599 28.9519 22.2472ZM50.655 22.2472C50.655 24.1345 49.1122 25.6642 47.2091 25.6642C45.306 25.6642 43.7632 24.1345 43.7632 22.2472C43.7632 20.3599 45.306 18.8302 47.2091 18.8302C49.1122 18.8302 50.655 20.3599 50.655 22.2472ZM72.3578 22.2472C72.3578 24.1345 70.8152 25.6642 68.9119 25.6642C67.0087 25.6642 65.466 24.1345 65.466 22.2472C65.466 20.3599 67.0087 18.8302 68.9119 18.8302C70.8152 18.8302 72.3578 20.3599 72.3578 22.2472ZM7.24922 40.9693C7.24922 42.8561 5.70642 44.3863 3.80332 44.3863C1.90022 44.3863 0.357422 42.8561 0.357422 40.9693C0.357422 39.0824 1.90022 37.5523 3.80332 37.5523C5.70642 37.5523 7.24922 39.0824 7.24922 40.9693ZM28.9519 40.9693C28.9519 42.8561 27.4094 44.3863 25.5061 44.3863C23.603 44.3863 22.0601 42.8561 22.0601 40.9693C22.0601 39.0824 23.603 37.5523 25.5061 37.5523C27.4094 37.5523 28.9519 39.0824 28.9519 40.9693ZM50.655 40.9693C50.655 42.8561 49.1122 44.3863 47.2091 44.3863C45.306 44.3863 43.7632 42.8561 43.7632 40.9693C43.7632 39.0824 45.306 37.5523 47.2091 37.5523C49.1122 37.5523 50.655 39.0824 50.655 40.9693ZM72.3578 40.9693C72.3578 42.8561 70.8152 44.3863 68.9119 44.3863C67.0087 44.3863 65.466 42.8561 65.466 40.9693C65.466 39.0824 67.0087 37.5523 68.9119 37.5523C70.8152 37.5523 72.3578 39.0824 72.3578 40.9693ZM7.24922 59.6913C7.24922 61.5782 5.70642 63.1084 3.80332 63.1084C1.90022 63.1084 0.357422 61.5782 0.357422 59.6913C0.357422 57.8045 1.90022 56.2743 3.80332 56.2743C5.70642 56.2743 7.24922 57.8045 7.24922 59.6913ZM28.9519 59.6913C28.9519 61.5782 27.4094 63.1084 25.5061 63.1084C23.603 63.1084 22.0601 61.5782 22.0601 59.6913C22.0601 57.8045 23.603 56.2743 25.5061 56.2743C27.4094 56.2743 28.9519 57.8045 28.9519 59.6913ZM50.655 59.6913C50.655 61.5782 49.1122 63.1084 47.2091 63.1084C45.306 63.1084 43.7632 61.5782 43.7632 59.6913C43.7632 57.8045 45.306 56.2743 47.2091 56.2743C49.1122 56.2743 50.655 57.8045 50.655 59.6913ZM72.3578 59.6913C72.3578 61.5782 70.8152 63.1084 68.9119 63.1084C67.0087 63.1084 65.466 61.5782 65.466 59.6913C65.466 57.8045 67.0087 56.2743 68.9119 56.2743C70.8152 56.2743 72.3578 57.8045 72.3578 59.6913Z" fill="#E6E6E6"/>
<path d="M7.24922 3.52515C7.24922 5.41195 5.70642 6.94215 3.80332 6.94215C1.90022 6.94215 0.357422 5.41195 0.357422 3.52515C0.357422 1.63775 1.90022 0.108154 3.80332 0.108154C5.70642 0.108154 7.24922 1.63775 7.24922 3.52515ZM28.9519 3.52515C28.9519 5.41195 27.4094 6.94215 25.5061 6.94215C23.603 6.94215 22.0601 5.41195 22.0601 3.52515C22.0601 1.63775 23.603 0.108154 25.5061 0.108154C27.4094 0.108154 28.9519 1.63775 28.9519 3.52515ZM50.655 3.52515C50.655 5.41195 49.1122 6.94215 47.2091 6.94215C45.306 6.94215 43.7632 5.41195 43.7632 3.52515C43.7632 1.63775 45.306 0.108154 47.2091 0.108154C49.1122 0.108154 50.655 1.63775 50.655 3.52515ZM72.3578 3.52515C72.3578 5.41195 70.8152 6.94215 68.9119 6.94215C67.0087 6.94215 65.466 5.41195 65.466 3.52515C65.466 1.63775 67.0087 0.108154 68.9119 0.108154C70.8152 0.108154 72.3578 1.63775 72.3578 3.52515ZM7.24922 22.2472C7.24922 24.1345 5.70642 25.6642 3.80332 25.6642C1.90022 25.6642 0.357422 24.1345 0.357422 22.2472C0.357422 20.3599 1.90022 18.8302 3.80332 18.8302C5.70642 18.8302 7.24922 20.3599 7.24922 22.2472ZM28.9519 22.2472C28.9519 24.1345 27.4094 25.6642 25.5061 25.6642C23.603 25.6642 22.0601 24.1345 22.0601 22.2472C22.0601 20.3599 23.603 18.8302 25.5061 18.8302C27.4094 18.8302 28.9519 20.3599 28.9519 22.2472ZM50.655 22.2472C50.655 24.1345 49.1122 25.6642 47.2091 25.6642C45.306 25.6642 43.7632 24.1345 43.7632 22.2472C43.7632 20.3599 45.306 18.8302 47.2091 18.8302C49.1122 18.8302 50.655 20.3599 50.655 22.2472ZM72.3578 22.2472C72.3578 24.1345 70.8152 25.6642 68.9119 25.6642C67.0087 25.6642 65.466 24.1345 65.466 22.2472C65.466 20.3599 67.0087 18.8302 68.9119 18.8302C70.8152 18.8302 72.3578 20.3599 72.3578 22.2472ZM7.24922 40.9693C7.24922 42.8561 5.70642 44.3863 3.80332 44.3863C1.90022 44.3863 0.357422 42.8561 0.357422 40.9693C0.357422 39.0824 1.90022 37.5523 3.80332 37.5523C5.70642 37.5523 7.24922 39.0824 7.24922 40.9693ZM28.9519 40.9693C28.9519 42.8561 27.4094 44.3863 25.5061 44.3863C23.603 44.3863 22.0601 42.8561 22.0601 40.9693C22.0601 39.0824 23.603 37.5523 25.5061 37.5523C27.4094 37.5523 28.9519 39.0824 28.9519 40.9693ZM50.655 40.9693C50.655 42.8561 49.1122 44.3863 47.2091 44.3863C45.306 44.3863 43.7632 42.8561 43.7632 40.9693C43.7632 39.0824 45.306 37.5523 47.2091 37.5523C49.1122 37.5523 50.655 39.0824 50.655 40.9693ZM72.3578 40.9693C72.3578 42.8561 70.8152 44.3863 68.9119 44.3863C67.0087 44.3863 65.466 42.8561 65.466 40.9693C65.466 39.0824 67.0087 37.5523 68.9119 37.5523C70.8152 37.5523 72.3578 39.0824 72.3578 40.9693ZM7.24922 59.6913C7.24922 61.5782 5.70642 63.1084 3.80332 63.1084C1.90022 63.1084 0.357422 61.5782 0.357422 59.6913C0.357422 57.8045 1.90022 56.2743 3.80332 56.2743C5.70642 56.2743 7.24922 57.8045 7.24922 59.6913ZM28.9519 59.6913C28.9519 61.5782 27.4094 63.1084 25.5061 63.1084C23.603 63.1084 22.0601 61.5782 22.0601 59.6913C22.0601 57.8045 23.603 56.2743 25.5061 56.2743C27.4094 56.2743 28.9519 57.8045 28.9519 59.6913ZM50.655 59.6913C50.655 61.5782 49.1122 63.1084 47.2091 63.1084C45.306 63.1084 43.7632 61.5782 43.7632 59.6913C43.7632 57.8045 45.306 56.2743 47.2091 56.2743C49.1122 56.2743 50.655 57.8045 50.655 59.6913ZM72.3578 59.6913C72.3578 61.5782 70.8152 63.1084 68.9119 63.1084C67.0087 63.1084 65.466 61.5782 65.466 59.6913C65.466 57.8045 67.0087 56.2743 68.9119 56.2743C70.8152 56.2743 72.3578 57.8045 72.3578 59.6913Z" fill="#E6E6E6"/>
<path d="M7.24922 3.52515C7.24922 5.41195 5.70642 6.94215 3.80332 6.94215C1.90022 6.94215 0.357422 5.41195 0.357422 3.52515C0.357422 1.63775 1.90022 0.108154 3.80332 0.108154C5.70642 0.108154 7.24922 1.63775 7.24922 3.52515ZM28.9519 3.52515C28.9519 5.41195 27.4094 6.94215 25.5061 6.94215C23.603 6.94215 22.0601 5.41195 22.0601 3.52515C22.0601 1.63775 23.603 0.108154 25.5061 0.108154C27.4094 0.108154 28.9519 1.63775 28.9519 3.52515ZM50.655 3.52515C50.655 5.41195 49.1122 6.94215 47.2091 6.94215C45.306 6.94215 43.7632 5.41195 43.7632 3.52515C43.7632 1.63775 45.306 0.108154 47.2091 0.108154C49.1122 0.108154 50.655 1.63775 50.655 3.52515ZM72.3578 3.52515C72.3578 5.41195 70.8152 6.94215 68.9119 6.94215C67.0087 6.94215 65.466 5.41195 65.466 3.52515C65.466 1.63775 67.0087 0.108154 68.9119 0.108154C70.8152 0.108154 72.3578 1.63775 72.3578 3.52515ZM7.24922 22.2472C7.24922 24.1345 5.70642 25.6642 3.80332 25.6642C1.90022 25.6642 0.357422 24.1345 0.357422 22.2472C0.357422 20.3599 1.90022 18.8302 3.80332 18.8302C5.70642 18.8302 7.24922 20.3599 7.24922 22.2472ZM28.9519 22.2472C28.9519 24.1345 27.4094 25.6642 25.5061 25.6642C23.603 25.6642 22.0601 24.1345 22.0601 22.2472C22.0601 20.3599 23.603 18.8302 25.5061 18.8302C27.4094 18.8302 28.9519 20.3599 28.9519 22.2472ZM50.655 22.2472C50.655 24.1345 49.1122 25.6642 47.2091 25.6642C45.306 25.6642 43.7632 24.1345 43.7632 22.2472C43.7632 20.3599 45.306 18.8302 47.2091 18.8302C49.1122 18.8302 50.655 20.3599 50.655 22.2472ZM72.3578 22.2472C72.3578 24.1345 70.8152 25.6642 68.9119 25.6642C67.0087 25.6642 65.466 24.1345 65.466 22.2472C65.466 20.3599 67.0087 18.8302 68.9119 18.8302C70.8152 18.8302 72.3578 20.3599 72.3578 22.2472ZM7.24922 40.9693C7.24922 42.8561 5.70642 44.3863 3.80332 44.3863C1.90022 44.3863 0.357422 42.8561 0.357422 40.9693C0.357422 39.0824 1.90022 37.5523 3.80332 37.5523C5.70642 37.5523 7.24922 39.0824 7.24922 40.9693ZM28.9519 40.9693C28.9519 42.8561 27.4094 44.3863 25.5061 44.3863C23.603 44.3863 22.0601 42.8561 22.0601 40.9693C22.0601 39.0824 23.603 37.5523 25.5061 37.5523C27.4094 37.5523 28.9519 39.0824 28.9519 40.9693ZM50.655 40.9693C50.655 42.8561 49.1122 44.3863 47.2091 44.3863C45.306 44.3863 43.7632 42.8561 43.7632 40.9693C43.7632 39.0824 45.306 37.5523 47.2091 37.5523C49.1122 37.5523 50.655 39.0824 50.655 40.9693ZM72.3578 40.9693C72.3578 42.8561 70.8152 44.3863 68.9119 44.3863C67.0087 44.3863 65.466 42.8561 65.466 40.9693C65.466 39.0824 67.0087 37.5523 68.9119 37.5523C70.8152 37.5523 72.3578 39.0824 72.3578 40.9693ZM7.24922 59.6913C7.24922 61.5782 5.70642 63.1084 3.80332 63.1084C1.90022 63.1084 0.357422 61.5782 0.357422 59.6913C0.357422 57.8045 1.90022 56.2743 3.80332 56.2743C5.70642 56.2743 7.24922 57.8045 7.24922 59.6913ZM28.9519 59.6913C28.9519 61.5782 27.4094 63.1084 25.5061 63.1084C23.603 63.1084 22.0601 61.5782 22.0601 59.6913C22.0601 57.8045 23.603 56.2743 25.5061 56.2743C27.4094 56.2743 28.9519 57.8045 28.9519 59.6913ZM50.655 59.6913C50.655 61.5782 49.1122 63.1084 47.2091 63.1084C45.306 63.1084 43.7632 61.5782 43.7632 59.6913C43.7632 57.8045 45.306 56.2743 47.2091 56.2743C49.1122 56.2743 50.655 57.8045 50.655 59.6913ZM72.3578 59.6913C72.3578 61.5782 70.8152 63.1084 68.9119 63.1084C67.0087 63.1084 65.466 61.5782 65.466 59.6913C65.466 57.8045 67.0087 56.2743 68.9119 56.2743C70.8152 56.2743 72.3578 57.8045 72.3578 59.6913Z" fill="#E6E6E6"/>
<path d="M7.24922 3.52515C7.24922 5.41195 5.70642 6.94215 3.80332 6.94215C1.90022 6.94215 0.357422 5.41195 0.357422 3.52515C0.357422 1.63775 1.90022 0.108154 3.80332 0.108154C5.70642 0.108154 7.24922 1.63775 7.24922 3.52515ZM28.9519 3.52515C28.9519 5.41195 27.4094 6.94215 25.5061 6.94215C23.603 6.94215 22.0601 5.41195 22.0601 3.52515C22.0601 1.63775 23.603 0.108154 25.5061 0.108154C27.4094 0.108154 28.9519 1.63775 28.9519 3.52515ZM50.655 3.52515C50.655 5.41195 49.1122 6.94215 47.2091 6.94215C45.306 6.94215 43.7632 5.41195 43.7632 3.52515C43.7632 1.63775 45.306 0.108154 47.2091 0.108154C49.1122 0.108154 50.655 1.63775 50.655 3.52515ZM72.3578 3.52515C72.3578 5.41195 70.8152 6.94215 68.9119 6.94215C67.0087 6.94215 65.466 5.41195 65.466 3.52515C65.466 1.63775 67.0087 0.108154 68.9119 0.108154C70.8152 0.108154 72.3578 1.63775 72.3578 3.52515ZM7.24922 22.2472C7.24922 24.1345 5.70642 25.6642 3.80332 25.6642C1.90022 25.6642 0.357422 24.1345 0.357422 22.2472C0.357422 20.3599 1.90022 18.8302 3.80332 18.8302C5.70642 18.8302 7.24922 20.3599 7.24922 22.2472ZM28.9519 22.2472C28.9519 24.1345 27.4094 25.6642 25.5061 25.6642C23.603 25.6642 22.0601 24.1345 22.0601 22.2472C22.0601 20.3599 23.603 18.8302 25.5061 18.8302C27.4094 18.8302 28.9519 20.3599 28.9519 22.2472ZM50.655 22.2472C50.655 24.1345 49.1122 25.6642 47.2091 25.6642C45.306 25.6642 43.7632 24.1345 43.7632 22.2472C43.7632 20.3599 45.306 18.8302 47.2091 18.8302C49.1122 18.8302 50.655 20.3599 50.655 22.2472ZM72.3578 22.2472C72.3578 24.1345 70.8152 25.6642 68.9119 25.6642C67.0087 25.6642 65.466 24.1345 65.466 22.2472C65.466 20.3599 67.0087 18.8302 68.9119 18.8302C70.8152 18.8302 72.3578 20.3599 72.3578 22.2472ZM7.24922 40.9693C7.24922 42.8561 5.70642 44.3863 3.80332 44.3863C1.90022 44.3863 0.357422 42.8561 0.357422 40.9693C0.357422 39.0824 1.90022 37.5523 3.80332 37.5523C5.70642 37.5523 7.24922 39.0824 7.24922 40.9693ZM28.9519 40.9693C28.9519 42.8561 27.4094 44.3863 25.5061 44.3863C23.603 44.3863 22.0601 42.8561 22.0601 40.9693C22.0601 39.0824 23.603 37.5523 25.5061 37.5523C27.4094 37.5523 28.9519 39.0824 28.9519 40.9693ZM50.655 40.9693C50.655 42.8561 49.1122 44.3863 47.2091 44.3863C45.306 44.3863 43.7632 42.8561 43.7632 40.9693C43.7632 39.0824 45.306 37.5523 47.2091 37.5523C49.1122 37.5523 50.655 39.0824 50.655 40.9693ZM72.3578 40.9693C72.3578 42.8561 70.8152 44.3863 68.9119 44.3863C67.0087 44.3863 65.466 42.8561 65.466 40.9693C65.466 39.0824 67.0087 37.5523 68.9119 37.5523C70.8152 37.5523 72.3578 39.0824 72.3578 40.9693ZM7.24922 59.6913C7.24922 61.5782 5.70642 63.1084 3.80332 63.1084C1.90022 63.1084 0.357422 61.5782 0.357422 59.6913C0.357422 57.8045 1.90022 56.2743 3.80332 56.2743C5.70642 56.2743 7.24922 57.8045 7.24922 59.6913ZM28.9519 59.6913C28.9519 61.5782 27.4094 63.1084 25.5061 63.1084C23.603 63.1084 22.0601 61.5782 22.0601 59.6913C22.0601 57.8045 23.603 56.2743 25.5061 56.2743C27.4094 56.2743 28.9519 57.8045 28.9519 59.6913ZM50.655 59.6913C50.655 61.5782 49.1122 63.1084 47.2091 63.1084C45.306 63.1084 43.7632 61.5782 43.7632 59.6913C43.7632 57.8045 45.306 56.2743 47.2091 56.2743C49.1122 56.2743 50.655 57.8045 50.655 59.6913ZM72.3578 59.6913C72.3578 61.5782 70.8152 63.1084 68.9119 63.1084C67.0087 63.1084 65.466 61.5782 65.466 59.6913C65.466 57.8045 67.0087 56.2743 68.9119 56.2743C70.8152 56.2743 72.3578 57.8045 72.3578 59.6913Z" fill="#E6E6E6"/>
<path d="M7.24922 3.52515C7.24922 5.41195 5.70642 6.94215 3.80332 6.94215C1.90022 6.94215 0.357422 5.41195 0.357422 3.52515C0.357422 1.63775 1.90022 0.108154 3.80332 0.108154C5.70642 0.108154 7.24922 1.63775 7.24922 3.52515ZM28.9519 3.52515C28.9519 5.41195 27.4094 6.94215 25.5061 6.94215C23.603 6.94215 22.0601 5.41195 22.0601 3.52515C22.0601 1.63775 23.603 0.108154 25.5061 0.108154C27.4094 0.108154 28.9519 1.63775 28.9519 3.52515ZM50.655 3.52515C50.655 5.41195 49.1122 6.94215 47.2091 6.94215C45.306 6.94215 43.7632 5.41195 43.7632 3.52515C43.7632 1.63775 45.306 0.108154 47.2091 0.108154C49.1122 0.108154 50.655 1.63775 50.655 3.52515ZM72.3578 3.52515C72.3578 5.41195 70.8152 6.94215 68.9119 6.94215C67.0087 6.94215 65.466 5.41195 65.466 3.52515C65.466 1.63775 67.0087 0.108154 68.9119 0.108154C70.8152 0.108154 72.3578 1.63775 72.3578 3.52515ZM7.24922 22.2472C7.24922 24.1345 5.70642 25.6642 3.80332 25.6642C1.90022 25.6642 0.357422 24.1345 0.357422 22.2472C0.357422 20.3599 1.90022 18.8302 3.80332 18.8302C5.70642 18.8302 7.24922 20.3599 7.24922 22.2472ZM28.9519 22.2472C28.9519 24.1345 27.4094 25.6642 25.5061 25.6642C23.603 25.6642 22.0601 24.1345 22.0601 22.2472C22.0601 20.3599 23.603 18.8302 25.5061 18.8302C27.4094 18.8302 28.9519 20.3599 28.9519 22.2472ZM50.655 22.2472C50.655 24.1345 49.1122 25.6642 47.2091 25.6642C45.306 25.6642 43.7632 24.1345 43.7632 22.2472C43.7632 20.3599 45.306 18.8302 47.2091 18.8302C49.1122 18.8302 50.655 20.3599 50.655 22.2472ZM72.3578 22.2472C72.3578 24.1345 70.8152 25.6642 68.9119 25.6642C67.0087 25.6642 65.466 24.1345 65.466 22.2472C65.466 20.3599 67.0087 18.8302 68.9119 18.8302C70.8152 18.8302 72.3578 20.3599 72.3578 22.2472ZM7.24922 40.9693C7.24922 42.8561 5.70642 44.3863 3.80332 44.3863C1.90022 44.3863 0.357422 42.8561 0.357422 40.9693C0.357422 39.0824 1.90022 37.5523 3.80332 37.5523C5.70642 37.5523 7.24922 39.0824 7.24922 40.9693ZM28.9519 40.9693C28.9519 42.8561 27.4094 44.3863 25.5061 44.3863C23.603 44.3863 22.0601 42.8561 22.0601 40.9693C22.0601 39.0824 23.603 37.5523 25.5061 37.5523C27.4094 37.5523 28.9519 39.0824 28.9519 40.9693ZM50.655 40.9693C50.655 42.8561 49.1122 44.3863 47.2091 44.3863C45.306 44.3863 43.7632 42.8561 43.7632 40.9693C43.7632 39.0824 45.306 37.5523 47.2091 37.5523C49.1122 37.5523 50.655 39.0824 50.655 40.9693ZM72.3578 40.9693C72.3578 42.8561 70.8152 44.3863 68.9119 44.3863C67.0087 44.3863 65.466 42.8561 65.466 40.9693C65.466 39.0824 67.0087 37.5523 68.9119 37.5523C70.8152 37.5523 72.3578 39.0824 72.3578 40.9693ZM7.24922 59.6913C7.24922 61.5782 5.70642 63.1084 3.80332 63.1084C1.90022 63.1084 0.357422 61.5782 0.357422 59.6913C0.357422 57.8045 1.90022 56.2743 3.80332 56.2743C5.70642 56.2743 7.24922 57.8045 7.24922 59.6913ZM28.9519 59.6913C28.9519 61.5782 27.4094 63.1084 25.5061 63.1084C23.603 63.1084 22.0601 61.5782 22.0601 59.6913C22.0601 57.8045 23.603 56.2743 25.5061 56.2743C27.4094 56.2743 28.9519 57.8045 28.9519 59.6913ZM50.655 59.6913C50.655 61.5782 49.1122 63.1084 47.2091 63.1084C45.306 63.1084 43.7632 61.5782 43.7632 59.6913C43.7632 57.8045 45.306 56.2743 47.2091 56.2743C49.1122 56.2743 50.655 57.8045 50.655 59.6913ZM72.3578 59.6913C72.3578 61.5782 70.8152 63.1084 68.9119 63.1084C67.0087 63.1084 65.466 61.5782 65.466 59.6913C65.466 57.8045 67.0087 56.2743 68.9119 56.2743C70.8152 56.2743 72.3578 57.8045 72.3578 59.6913Z" fill="#E6E6E6"/>
<path d="M7.24922 3.52515C7.24922 5.41195 5.70642 6.94215 3.80332 6.94215C1.90022 6.94215 0.357422 5.41195 0.357422 3.52515C0.357422 1.63775 1.90022 0.108154 3.80332 0.108154C5.70642 0.108154 7.24922 1.63775 7.24922 3.52515ZM28.9519 3.52515C28.9519 5.41195 27.4094 6.94215 25.5061 6.94215C23.603 6.94215 22.0601 5.41195 22.0601 3.52515C22.0601 1.63775 23.603 0.108154 25.5061 0.108154C27.4094 0.108154 28.9519 1.63775 28.9519 3.52515ZM50.655 3.52515C50.655 5.41195 49.1122 6.94215 47.2091 6.94215C45.306 6.94215 43.7632 5.41195 43.7632 3.52515C43.7632 1.63775 45.306 0.108154 47.2091 0.108154C49.1122 0.108154 50.655 1.63775 50.655 3.52515ZM72.3578 3.52515C72.3578 5.41195 70.8152 6.94215 68.9119 6.94215C67.0087 6.94215 65.466 5.41195 65.466 3.52515C65.466 1.63775 67.0087 0.108154 68.9119 0.108154C70.8152 0.108154 72.3578 1.63775 72.3578 3.52515ZM7.24922 22.2472C7.24922 24.1345 5.70642 25.6642 3.80332 25.6642C1.90022 25.6642 0.357422 24.1345 0.357422 22.2472C0.357422 20.3599 1.90022 18.8302 3.80332 18.8302C5.70642 18.8302 7.24922 20.3599 7.24922 22.2472ZM28.9519 22.2472C28.9519 24.1345 27.4094 25.6642 25.5061 25.6642C23.603 25.6642 22.0601 24.1345 22.0601 22.2472C22.0601 20.3599 23.603 18.8302 25.5061 18.8302C27.4094 18.8302 28.9519 20.3599 28.9519 22.2472ZM50.655 22.2472C50.655 24.1345 49.1122 25.6642 47.2091 25.6642C45.306 25.6642 43.7632 24.1345 43.7632 22.2472C43.7632 20.3599 45.306 18.8302 47.2091 18.8302C49.1122 18.8302 50.655 20.3599 50.655 22.2472ZM72.3578 22.2472C72.3578 24.1345 70.8152 25.6642 68.9119 25.6642C67.0087 25.6642 65.466 24.1345 65.466 22.2472C65.466 20.3599 67.0087 18.8302 68.9119 18.8302C70.8152 18.8302 72.3578 20.3599 72.3578 22.2472ZM7.24922 40.9693C7.24922 42.8561 5.70642 44.3863 3.80332 44.3863C1.90022 44.3863 0.357422 42.8561 0.357422 40.9693C0.357422 39.0824 1.90022 37.5523 3.80332 37.5523C5.70642 37.5523 7.24922 39.0824 7.24922 40.9693ZM28.9519 40.9693C28.9519 42.8561 27.4094 44.3863 25.5061 44.3863C23.603 44.3863 22.0601 42.8561 22.0601 40.9693C22.0601 39.0824 23.603 37.5523 25.5061 37.5523C27.4094 37.5523 28.9519 39.0824 28.9519 40.9693ZM50.655 40.9693C50.655 42.8561 49.1122 44.3863 47.2091 44.3863C45.306 44.3863 43.7632 42.8561 43.7632 40.9693C43.7632 39.0824 45.306 37.5523 47.2091 37.5523C49.1122 37.5523 50.655 39.0824 50.655 40.9693ZM72.3578 40.9693C72.3578 42.8561 70.8152 44.3863 68.9119 44.3863C67.0087 44.3863 65.466 42.8561 65.466 40.9693C65.466 39.0824 67.0087 37.5523 68.9119 37.5523C70.8152 37.5523 72.3578 39.0824 72.3578 40.9693ZM7.24922 59.6913C7.24922 61.5782 5.70642 63.1084 3.80332 63.1084C1.90022 63.1084 0.357422 61.5782 0.357422 59.6913C0.357422 57.8045 1.90022 56.2743 3.80332 56.2743C5.70642 56.2743 7.24922 57.8045 7.24922 59.6913ZM28.9519 59.6913C28.9519 61.5782 27.4094 63.1084 25.5061 63.1084C23.603 63.1084 22.0601 61.5782 22.0601 59.6913C22.0601 57.8045 23.603 56.2743 25.5061 56.2743C27.4094 56.2743 28.9519 57.8045 28.9519 59.6913ZM50.655 59.6913C50.655 61.5782 49.1122 63.1084 47.2091 63.1084C45.306 63.1084 43.7632 61.5782 43.7632 59.6913C43.7632 57.8045 45.306 56.2743 47.2091 56.2743C49.1122 56.2743 50.655 57.8045 50.655 59.6913ZM72.3578 59.6913C72.3578 61.5782 70.8152 63.1084 68.9119 63.1084C67.0087 63.1084 65.466 61.5782 65.466 59.6913C65.466 57.8045 67.0087 56.2743 68.9119 56.2743C70.8152 56.2743 72.3578 57.8045 72.3578 59.6913Z" fill="#E6E6E6"/>
<path d="M7.24922 3.52515C7.24922 5.41195 5.70642 6.94215 3.80332 6.94215C1.90022 6.94215 0.357422 5.41195 0.357422 3.52515C0.357422 1.63775 1.90022 0.108154 3.80332 0.108154C5.70642 0.108154 7.24922 1.63775 7.24922 3.52515ZM28.9519 3.52515C28.9519 5.41195 27.4094 6.94215 25.5061 6.94215C23.603 6.94215 22.0601 5.41195 22.0601 3.52515C22.0601 1.63775 23.603 0.108154 25.5061 0.108154C27.4094 0.108154 28.9519 1.63775 28.9519 3.52515ZM50.655 3.52515C50.655 5.41195 49.1122 6.94215 47.2091 6.94215C45.306 6.94215 43.7632 5.41195 43.7632 3.52515C43.7632 1.63775 45.306 0.108154 47.2091 0.108154C49.1122 0.108154 50.655 1.63775 50.655 3.52515ZM72.3578 3.52515C72.3578 5.41195 70.8152 6.94215 68.9119 6.94215C67.0087 6.94215 65.466 5.41195 65.466 3.52515C65.466 1.63775 67.0087 0.108154 68.9119 0.108154C70.8152 0.108154 72.3578 1.63775 72.3578 3.52515ZM7.24922 22.2472C7.24922 24.1345 5.70642 25.6642 3.80332 25.6642C1.90022 25.6642 0.357422 24.1345 0.357422 22.2472C0.357422 20.3599 1.90022 18.8302 3.80332 18.8302C5.70642 18.8302 7.24922 20.3599 7.24922 22.2472ZM28.9519 22.2472C28.9519 24.1345 27.4094 25.6642 25.5061 25.6642C23.603 25.6642 22.0601 24.1345 22.0601 22.2472C22.0601 20.3599 23.603 18.8302 25.5061 18.8302C27.4094 18.8302 28.9519 20.3599 28.9519 22.2472ZM50.655 22.2472C50.655 24.1345 49.1122 25.6642 47.2091 25.6642C45.306 25.6642 43.7632 24.1345 43.7632 22.2472C43.7632 20.3599 45.306 18.8302 47.2091 18.8302C49.1122 18.8302 50.655 20.3599 50.655 22.2472ZM72.3578 22.2472C72.3578 24.1345 70.8152 25.6642 68.9119 25.6642C67.0087 25.6642 65.466 24.1345 65.466 22.2472C65.466 20.3599 67.0087 18.8302 68.9119 18.8302C70.8152 18.8302 72.3578 20.3599 72.3578 22.2472ZM7.24922 40.9693C7.24922 42.8561 5.70642 44.3863 3.80332 44.3863C1.90022 44.3863 0.357422 42.8561 0.357422 40.9693C0.357422 39.0824 1.90022 37.5523 3.80332 37.5523C5.70642 37.5523 7.24922 39.0824 7.24922 40.9693ZM28.9519 40.9693C28.9519 42.8561 27.4094 44.3863 25.5061 44.3863C23.603 44.3863 22.0601 42.8561 22.0601 40.9693C22.0601 39.0824 23.603 37.5523 25.5061 37.5523C27.4094 37.5523 28.9519 39.0824 28.9519 40.9693ZM50.655 40.9693C50.655 42.8561 49.1122 44.3863 47.2091 44.3863C45.306 44.3863 43.7632 42.8561 43.7632 40.9693C43.7632 39.0824 45.306 37.5523 47.2091 37.5523C49.1122 37.5523 50.655 39.0824 50.655 40.9693ZM72.3578 40.9693C72.3578 42.8561 70.8152 44.3863 68.9119 44.3863C67.0087 44.3863 65.466 42.8561 65.466 40.9693C65.466 39.0824 67.0087 37.5523 68.9119 37.5523C70.8152 37.5523 72.3578 39.0824 72.3578 40.9693ZM7.24922 59.6913C7.24922 61.5782 5.70642 63.1084 3.80332 63.1084C1.90022 63.1084 0.357422 61.5782 0.357422 59.6913C0.357422 57.8045 1.90022 56.2743 3.80332 56.2743C5.70642 56.2743 7.24922 57.8045 7.24922 59.6913ZM28.9519 59.6913C28.9519 61.5782 27.4094 63.1084 25.5061 63.1084C23.603 63.1084 22.0601 61.5782 22.0601 59.6913C22.0601 57.8045 23.603 56.2743 25.5061 56.2743C27.4094 56.2743 28.9519 57.8045 28.9519 59.6913ZM50.655 59.6913C50.655 61.5782 49.1122 63.1084 47.2091 63.1084C45.306 63.1084 43.7632 61.5782 43.7632 59.6913C43.7632 57.8045 45.306 56.2743 47.2091 56.2743C49.1122 56.2743 50.655 57.8045 50.655 59.6913ZM72.3578 59.6913C72.3578 61.5782 70.8152 63.1084 68.9119 63.1084C67.0087 63.1084 65.466 61.5782 65.466 59.6913C65.466 57.8045 67.0087 56.2743 68.9119 56.2743C70.8152 56.2743 72.3578 57.8045 72.3578 59.6913Z" fill="#E6E6E6"/>
<path d="M7.24922 3.52515C7.24922 5.41195 5.70642 6.94215 3.80332 6.94215C1.90022 6.94215 0.357422 5.41195 0.357422 3.52515C0.357422 1.63775 1.90022 0.108154 3.80332 0.108154C5.70642 0.108154 7.24922 1.63775 7.24922 3.52515ZM28.9519 3.52515C28.9519 5.41195 27.4094 6.94215 25.5061 6.94215C23.603 6.94215 22.0601 5.41195 22.0601 3.52515C22.0601 1.63775 23.603 0.108154 25.5061 0.108154C27.4094 0.108154 28.9519 1.63775 28.9519 3.52515ZM50.655 3.52515C50.655 5.41195 49.1122 6.94215 47.2091 6.94215C45.306 6.94215 43.7632 5.41195 43.7632 3.52515C43.7632 1.63775 45.306 0.108154 47.2091 0.108154C49.1122 0.108154 50.655 1.63775 50.655 3.52515ZM72.3578 3.52515C72.3578 5.41195 70.8152 6.94215 68.9119 6.94215C67.0087 6.94215 65.466 5.41195 65.466 3.52515C65.466 1.63775 67.0087 0.108154 68.9119 0.108154C70.8152 0.108154 72.3578 1.63775 72.3578 3.52515ZM7.24922 22.2472C7.24922 24.1345 5.70642 25.6642 3.80332 25.6642C1.90022 25.6642 0.357422 24.1345 0.357422 22.2472C0.357422 20.3599 1.90022 18.8302 3.80332 18.8302C5.70642 18.8302 7.24922 20.3599 7.24922 22.2472ZM28.9519 22.2472C28.9519 24.1345 27.4094 25.6642 25.5061 25.6642C23.603 25.6642 22.0601 24.1345 22.0601 22.2472C22.0601 20.3599 23.603 18.8302 25.5061 18.8302C27.4094 18.8302 28.9519 20.3599 28.9519 22.2472ZM50.655 22.2472C50.655 24.1345 49.1122 25.6642 47.2091 25.6642C45.306 25.6642 43.7632 24.1345 43.7632 22.2472C43.7632 20.3599 45.306 18.8302 47.2091 18.8302C49.1122 18.8302 50.655 20.3599 50.655 22.2472ZM72.3578 22.2472C72.3578 24.1345 70.8152 25.6642 68.9119 25.6642C67.0087 25.6642 65.466 24.1345 65.466 22.2472C65.466 20.3599 67.0087 18.8302 68.9119 18.8302C70.8152 18.8302 72.3578 20.3599 72.3578 22.2472ZM7.24922 40.9693C7.24922 42.8561 5.70642 44.3863 3.80332 44.3863C1.90022 44.3863 0.357422 42.8561 0.357422 40.9693C0.357422 39.0824 1.90022 37.5523 3.80332 37.5523C5.70642 37.5523 7.24922 39.0824 7.24922 40.9693ZM28.9519 40.9693C28.9519 42.8561 27.4094 44.3863 25.5061 44.3863C23.603 44.3863 22.0601 42.8561 22.0601 40.9693C22.0601 39.0824 23.603 37.5523 25.5061 37.5523C27.4094 37.5523 28.9519 39.0824 28.9519 40.9693ZM50.655 40.9693C50.655 42.8561 49.1122 44.3863 47.2091 44.3863C45.306 44.3863 43.7632 42.8561 43.7632 40.9693C43.7632 39.0824 45.306 37.5523 47.2091 37.5523C49.1122 37.5523 50.655 39.0824 50.655 40.9693ZM72.3578 40.9693C72.3578 42.8561 70.8152 44.3863 68.9119 44.3863C67.0087 44.3863 65.466 42.8561 65.466 40.9693C65.466 39.0824 67.0087 37.5523 68.9119 37.5523C70.8152 37.5523 72.3578 39.0824 72.3578 40.9693ZM7.24922 59.6913C7.24922 61.5782 5.70642 63.1084 3.80332 63.1084C1.90022 63.1084 0.357422 61.5782 0.357422 59.6913C0.357422 57.8045 1.90022 56.2743 3.80332 56.2743C5.70642 56.2743 7.24922 57.8045 7.24922 59.6913ZM28.9519 59.6913C28.9519 61.5782 27.4094 63.1084 25.5061 63.1084C23.603 63.1084 22.0601 61.5782 22.0601 59.6913C22.0601 57.8045 23.603 56.2743 25.5061 56.2743C27.4094 56.2743 28.9519 57.8045 28.9519 59.6913ZM50.655 59.6913C50.655 61.5782 49.1122 63.1084 47.2091 63.1084C45.306 63.1084 43.7632 61.5782 43.7632 59.6913C43.7632 57.8045 45.306 56.2743 47.2091 56.2743C49.1122 56.2743 50.655 57.8045 50.655 59.6913ZM72.3578 59.6913C72.3578 61.5782 70.8152 63.1084 68.9119 63.1084C67.0087 63.1084 65.466 61.5782 65.466 59.6913C65.466 57.8045 67.0087 56.2743 68.9119 56.2743C70.8152 56.2743 72.3578 57.8045 72.3578 59.6913Z" fill="#E6E6E6"/>
<path d="M7.24922 3.52515C7.24922 5.41195 5.70642 6.94215 3.80332 6.94215C1.90022 6.94215 0.357422 5.41195 0.357422 3.52515C0.357422 1.63775 1.90022 0.108154 3.80332 0.108154C5.70642 0.108154 7.24922 1.63775 7.24922 3.52515ZM28.9519 3.52515C28.9519 5.41195 27.4094 6.94215 25.5061 6.94215C23.603 6.94215 22.0601 5.41195 22.0601 3.52515C22.0601 1.63775 23.603 0.108154 25.5061 0.108154C27.4094 0.108154 28.9519 1.63775 28.9519 3.52515ZM50.655 3.52515C50.655 5.41195 49.1122 6.94215 47.2091 6.94215C45.306 6.94215 43.7632 5.41195 43.7632 3.52515C43.7632 1.63775 45.306 0.108154 47.2091 0.108154C49.1122 0.108154 50.655 1.63775 50.655 3.52515ZM72.3578 3.52515C72.3578 5.41195 70.8152 6.94215 68.9119 6.94215C67.0087 6.94215 65.466 5.41195 65.466 3.52515C65.466 1.63775 67.0087 0.108154 68.9119 0.108154C70.8152 0.108154 72.3578 1.63775 72.3578 3.52515ZM7.24922 22.2472C7.24922 24.1345 5.70642 25.6642 3.80332 25.6642C1.90022 25.6642 0.357422 24.1345 0.357422 22.2472C0.357422 20.3599 1.90022 18.8302 3.80332 18.8302C5.70642 18.8302 7.24922 20.3599 7.24922 22.2472ZM28.9519 22.2472C28.9519 24.1345 27.4094 25.6642 25.5061 25.6642C23.603 25.6642 22.0601 24.1345 22.0601 22.2472C22.0601 20.3599 23.603 18.8302 25.5061 18.8302C27.4094 18.8302 28.9519 20.3599 28.9519 22.2472ZM50.655 22.2472C50.655 24.1345 49.1122 25.6642 47.2091 25.6642C45.306 25.6642 43.7632 24.1345 43.7632 22.2472C43.7632 20.3599 45.306 18.8302 47.2091 18.8302C49.1122 18.8302 50.655 20.3599 50.655 22.2472ZM72.3578 22.2472C72.3578 24.1345 70.8152 25.6642 68.9119 25.6642C67.0087 25.6642 65.466 24.1345 65.466 22.2472C65.466 20.3599 67.0087 18.8302 68.9119 18.8302C70.8152 18.8302 72.3578 20.3599 72.3578 22.2472ZM7.24922 40.9693C7.24922 42.8561 5.70642 44.3863 3.80332 44.3863C1.90022 44.3863 0.357422 42.8561 0.357422 40.9693C0.357422 39.0824 1.90022 37.5523 3.80332 37.5523C5.70642 37.5523 7.24922 39.0824 7.24922 40.9693ZM28.9519 40.9693C28.9519 42.8561 27.4094 44.3863 25.5061 44.3863C23.603 44.3863 22.0601 42.8561 22.0601 40.9693C22.0601 39.0824 23.603 37.5523 25.5061 37.5523C27.4094 37.5523 28.9519 39.0824 28.9519 40.9693ZM50.655 40.9693C50.655 42.8561 49.1122 44.3863 47.2091 44.3863C45.306 44.3863 43.7632 42.8561 43.7632 40.9693C43.7632 39.0824 45.306 37.5523 47.2091 37.5523C49.1122 37.5523 50.655 39.0824 50.655 40.9693ZM72.3578 40.9693C72.3578 42.8561 70.8152 44.3863 68.9119 44.3863C67.0087 44.3863 65.466 42.8561 65.466 40.9693C65.466 39.0824 67.0087 37.5523 68.9119 37.5523C70.8152 37.5523 72.3578 39.0824 72.3578 40.9693ZM7.24922 59.6913C7.24922 61.5782 5.70642 63.1084 3.80332 63.1084C1.90022 63.1084 0.357422 61.5782 0.357422 59.6913C0.357422 57.8045 1.90022 56.2743 3.80332 56.2743C5.70642 56.2743 7.24922 57.8045 7.24922 59.6913ZM28.9519 59.6913C28.9519 61.5782 27.4094 63.1084 25.5061 63.1084C23.603 63.1084 22.0601 61.5782 22.0601 59.6913C22.0601 57.8045 23.603 56.2743 25.5061 56.2743C27.4094 56.2743 28.9519 57.8045 28.9519 59.6913ZM50.655 59.6913C50.655 61.5782 49.1122 63.1084 47.2091 63.1084C45.306 63.1084 43.7632 61.5782 43.7632 59.6913C43.7632 57.8045 45.306 56.2743 47.2091 56.2743C49.1122 56.2743 50.655 57.8045 50.655 59.6913ZM72.3578 59.6913C72.3578 61.5782 70.8152 63.1084 68.9119 63.1084C67.0087 63.1084 65.466 61.5782 65.466 59.6913C65.466 57.8045 67.0087 56.2743 68.9119 56.2743C70.8152 56.2743 72.3578 57.8045 72.3578 59.6913Z" fill="#E6E6E6"/>
</svg>
